<mxfile host="app.diagrams.net" modified="2024-02-09T22:51:20.059Z" agent="Mozilla/5.0 (Macintosh; Intel Mac OS X 10_15_7) AppleWebKit/537.36 (KHTML, like Gecko) Chrome/121.0.0.0 Safari/537.36" etag="BG5hL4_TAZ7VkKQybYWr" version="23.1.2" type="github">
  <diagram name="Page-1" id="uhBtODdIhM4pIbooZ917">
    <mxGraphModel dx="963" dy="761" grid="1" gridSize="10" guides="1" tooltips="1" connect="1" arrows="1" fold="1" page="1" pageScale="1" pageWidth="850" pageHeight="1100" math="0" shadow="0">
      <root>
        <mxCell id="0" />
        <mxCell id="1" parent="0" />
        <mxCell id="yfl5XLdnhVJWAjlE_Zt0-2" value="Instagram&lt;br&gt;MVP:&amp;nbsp; Post photo, comment on post, follow/unfollow, like/unlike posts" style="text;strokeColor=none;align=center;fillColor=none;html=1;verticalAlign=middle;whiteSpace=wrap;rounded=0;" vertex="1" parent="1">
          <mxGeometry x="280" y="10" width="270" height="60" as="geometry" />
        </mxCell>
        <mxCell id="yfl5XLdnhVJWAjlE_Zt0-3" value="" style="shape=cylinder3;whiteSpace=wrap;html=1;boundedLbl=1;backgroundOutline=1;size=15;" vertex="1" parent="1">
          <mxGeometry x="30" y="110" width="120" height="160" as="geometry" />
        </mxCell>
        <mxCell id="yfl5XLdnhVJWAjlE_Zt0-4" value="Posts" style="text;strokeColor=none;align=center;fillColor=none;html=1;verticalAlign=middle;whiteSpace=wrap;rounded=0;" vertex="1" parent="1">
          <mxGeometry x="55" y="110" width="70" height="30" as="geometry" />
        </mxCell>
        <mxCell id="yfl5XLdnhVJWAjlE_Zt0-5" value="" style="shape=cylinder3;whiteSpace=wrap;html=1;boundedLbl=1;backgroundOutline=1;size=15;" vertex="1" parent="1">
          <mxGeometry x="30" y="310" width="120" height="160" as="geometry" />
        </mxCell>
        <mxCell id="yfl5XLdnhVJWAjlE_Zt0-6" value="Users" style="text;strokeColor=none;align=center;fillColor=none;html=1;verticalAlign=middle;whiteSpace=wrap;rounded=0;" vertex="1" parent="1">
          <mxGeometry x="55" y="310" width="70" height="30" as="geometry" />
        </mxCell>
        <mxCell id="yfl5XLdnhVJWAjlE_Zt0-7" value="{&lt;br&gt;id: string -&amp;gt; use hex code or something with a higher base&amp;nbsp;&lt;br&gt;imageUrl: string&lt;br&gt;comments&lt;br&gt;}" style="text;strokeColor=none;align=center;fillColor=none;html=1;verticalAlign=middle;whiteSpace=wrap;rounded=0;" vertex="1" parent="1">
          <mxGeometry x="269" y="281" width="350" height="160" as="geometry" />
        </mxCell>
        <mxCell id="yfl5XLdnhVJWAjlE_Zt0-8" value="" style="shape=cylinder3;whiteSpace=wrap;html=1;boundedLbl=1;backgroundOutline=1;size=15;" vertex="1" parent="1">
          <mxGeometry x="200" y="110" width="120" height="160" as="geometry" />
        </mxCell>
        <mxCell id="yfl5XLdnhVJWAjlE_Zt0-9" value="Comments" style="text;strokeColor=none;align=center;fillColor=none;html=1;verticalAlign=middle;whiteSpace=wrap;rounded=0;" vertex="1" parent="1">
          <mxGeometry x="225" y="110" width="70" height="30" as="geometry" />
        </mxCell>
      </root>
    </mxGraphModel>
  </diagram>
</mxfile>
